<svg width="91" height="39" viewBox="0 0 91 39" fill="none" xmlns="http://www.w3.org/2000/svg">
<path d="M61.8883 29.0734L71.0514 10.6263C71.1232 10.4799 71.1491 10.3147 71.1256 10.1542C71.1021 9.99369 71.0303 9.8459 70.9204 9.73171C70.8015 9.61804 70.6491 9.54848 70.4865 9.53362C70.324 9.51875 70.1601 9.55941 70.0198 9.64939L61.4269 15.0966L52.9715 9.69973C52.8347 9.61206 52.6734 9.57324 52.5115 9.58909C52.3497 9.60495 52.1961 9.67462 52.0739 9.78767C51.9506 9.90196 51.866 10.0541 51.8331 10.221C51.8002 10.3878 51.8207 10.5601 51.8915 10.7116L60.5461 29.0872C60.6071 29.2156 60.7018 29.3232 60.8196 29.3978C60.9374 29.4725 61.0736 29.5113 61.213 29.5098C61.3523 29.5084 61.4893 29.4668 61.6086 29.3897C61.7278 29.3127 61.8247 29.2031 61.8883 29.0734Z" fill="url(#paint0_linear_2003_228)"/>
<path d="M76.2435 10.1793L67.1671 28.3231C67.096 28.4671 67.0703 28.6303 67.0937 28.7898C67.117 28.9493 67.1882 29.0969 67.2971 29.2117C67.415 29.3262 67.566 29.3975 67.7271 29.4147C67.8882 29.4319 68.0506 29.3941 68.1896 29.3071L76.7037 24.0396L85.0837 29.5181C85.2192 29.6071 85.3791 29.648 85.5395 29.6348C85.6999 29.6215 85.852 29.5548 85.9732 29.4447C86.0953 29.3333 86.179 29.1837 86.2116 29.0189C86.2442 28.854 86.2239 28.6829 86.1537 28.5317L77.5735 10.1862C77.513 10.0579 77.4191 9.94986 77.3024 9.87406C77.1856 9.79827 77.0507 9.75774 76.9126 9.75703C76.7745 9.75632 76.6388 9.79544 76.5206 9.87002C76.4024 9.9446 76.3065 10.0517 76.2435 10.1793Z" fill="url(#paint1_linear_2003_228)"/>
<path fill-rule="evenodd" clip-rule="evenodd" d="M2.1 10.1075C1.1454 10.316 0.5616 10.6632 0.2906 11.1834C0.0531998 11.6392 6.07113e-08 12.9781 1.73302e-07 18.5011L3.11112e-07 25.2611L3.02173 25.2611C5.42693 25.2611 4.8108 25.0161 5.2892 23.3828C5.687 22.0244 6.446 21.4207 7.7326 21.4401C8.2182 21.4473 8.8272 21.591 9.086 21.7594C9.3448 21.9277 11.2032 23.8789 13.2156 26.0953C15.2282 28.3117 17.12 30.2853 17.4198 30.4811C18.5896 31.2448 21.6908 31.145 22.5252 30.3167L23 29.8454L22.98 23.9299C22.969 20.6766 22.9014 17.1357 22.83 16.0617C22.7108 14.2723 22.6554 14.0706 22.1684 13.6549C21.4766 13.0643 20.04 12.8554 18.7626 13.1595C17.5422 13.4502 17.0018 14.1798 17.0008 15.5384C17.0004 16.0329 16.8682 16.6241 16.707 16.8526C16.3058 17.4212 15.19 17.9154 14.3078 17.9154C13.4228 17.9154 12.533 17.1322 9.0282 13.2683C6.3606 10.3277 5.7928 9.97291 3.8 10.0015C3.085 10.0118 2.32 10.0595 2.1 10.1075Z" fill="white"/>
<path d="M35.7653 30.4606C35.8652 30.4694 35.9391 30.5574 35.9304 30.6569C35.9214 30.7562 35.8329 30.8297 35.7331 30.821C35.6333 30.8121 35.5593 30.7241 35.5681 30.6247C35.5769 30.5252 35.6654 30.4519 35.7653 30.4606ZM37.528 30.4274C37.6279 30.4187 37.7164 30.492 37.7253 30.5915C37.734 30.6909 37.6601 30.7789 37.5603 30.7878C37.4604 30.7965 37.3719 30.7231 37.363 30.6237C37.3542 30.5242 37.4282 30.4362 37.528 30.4274ZM34.0231 30.1882C34.12 30.214 34.1779 30.3134 34.152 30.4098C34.1261 30.5063 34.0263 30.5635 33.9294 30.5378C33.8324 30.5119 33.7745 30.4126 33.8005 30.3161C33.8265 30.2197 33.9263 30.1624 34.0231 30.1882ZM39.2585 30.0895C39.3554 30.0637 39.4551 30.121 39.4811 30.2175C39.5071 30.3138 39.4499 30.4131 39.3532 30.4391C39.2563 30.465 39.1566 30.4077 39.1306 30.3112C39.1046 30.2147 39.1616 30.1155 39.2585 30.0895ZM36.6013 29.57C36.7217 29.57 36.82 29.6669 36.82 29.7868C36.82 29.9067 36.7217 30.0036 36.6013 30.0036C36.481 30.0033 36.3835 29.9066 36.3835 29.7868C36.3835 29.667 36.481 29.5702 36.6013 29.57ZM32.3552 29.6188C32.446 29.661 32.4852 29.7686 32.4431 29.8591C32.4007 29.9495 32.2928 29.989 32.2019 29.9469C32.1109 29.9047 32.0716 29.7973 32.114 29.7067C32.1564 29.6161 32.2642 29.5766 32.3552 29.6188ZM35.0026 29.4557C35.1209 29.4767 35.2 29.5889 35.1794 29.7067C35.1585 29.8248 35.0451 29.9043 34.9265 29.8835C34.8079 29.8626 34.7288 29.7496 34.7497 29.6315C34.7707 29.5135 34.8841 29.4349 35.0026 29.4557ZM38.197 29.405C38.3154 29.3844 38.428 29.4638 38.4489 29.5817C38.4696 29.6997 38.3907 29.8119 38.2722 29.8327C38.1536 29.8535 38.0402 29.775 38.0192 29.6569C37.9983 29.5388 38.0784 29.4258 38.197 29.405ZM40.904 29.4577C40.995 29.4155 41.1028 29.455 41.1452 29.5456C41.1875 29.6361 41.1483 29.7436 41.0573 29.7858C40.9664 29.8278 40.8585 29.7884 40.8161 29.6979C40.7739 29.6074 40.8132 29.4999 40.904 29.4577ZM33.1677 29.1969C33.2089 29.0842 33.3338 29.026 33.447 29.0671C33.5601 29.1081 33.618 29.2327 33.5769 29.3454C33.5356 29.4579 33.4107 29.5163 33.2976 29.4753C33.1845 29.4342 33.1265 29.3096 33.1677 29.1969ZM39.739 28.9675C39.8521 28.9266 39.9771 28.9847 40.0183 29.0973C40.0594 29.21 40.0005 29.3346 39.8874 29.3757C39.7743 29.4164 39.6492 29.3583 39.6081 29.2458C39.567 29.1331 39.6258 29.0085 39.739 28.9675ZM35.8337 28.6344C35.9736 28.6467 36.0774 28.7695 36.0651 28.9089C36.0529 29.0481 35.9295 29.1512 35.7897 29.1393C35.6498 29.1271 35.5462 29.0042 35.5583 28.8649C35.5705 28.7255 35.6937 28.6223 35.8337 28.6344ZM37.277 28.6169C37.417 28.6047 37.5402 28.708 37.5524 28.8473C37.5647 28.9865 37.4617 29.1093 37.322 29.1218C37.182 29.1339 37.0578 29.0307 37.0456 28.8913C37.0335 28.752 37.1372 28.6291 37.277 28.6169ZM30.5583 28.8151C30.6158 28.7333 30.729 28.713 30.8112 28.7702C30.8933 28.8274 30.9135 28.9403 30.8561 29.0221C30.7987 29.1039 30.6854 29.1241 30.6032 29.0671C30.521 29.0098 30.5008 28.897 30.5583 28.8151ZM34.4089 28.402C34.5446 28.4382 34.6249 28.5774 34.5886 28.7126C34.5521 28.8476 34.4127 28.9275 34.277 28.8913C34.1416 28.855 34.0613 28.7167 34.0974 28.5817C34.1337 28.4466 34.2732 28.3658 34.4089 28.402ZM42.4138 28.5514C42.496 28.4941 42.6101 28.5135 42.6677 28.5954C42.7252 28.6772 42.7047 28.79 42.6228 28.8473C42.5406 28.9046 42.4274 28.8851 42.3698 28.8034C42.3123 28.7216 42.3318 28.6088 42.4138 28.5514ZM38.696 28.3503C38.8317 28.3142 38.9712 28.3949 39.0075 28.53C39.0435 28.6648 38.9632 28.8032 38.8278 28.8395C38.6922 28.8757 38.5528 28.7958 38.5163 28.6608C38.4799 28.5257 38.5603 28.3865 38.696 28.3503ZM31.6853 28.4948C31.7455 28.3909 31.8788 28.3557 31.9831 28.4157C32.0871 28.4757 32.1231 28.6079 32.0632 28.7116C32.003 28.8153 31.8696 28.8513 31.7653 28.7917C31.661 28.7317 31.625 28.5987 31.6853 28.4948ZM41.1813 28.2702C41.2857 28.2102 41.419 28.2454 41.4792 28.3493C41.5394 28.4531 41.5034 28.5862 41.3991 28.6462C41.2948 28.706 41.1615 28.6699 41.1013 28.5661C41.0413 28.4623 41.0772 28.3301 41.1813 28.2702ZM32.7087 28.0495C32.7681 27.9227 32.9192 27.8673 33.0466 27.9264C33.1739 27.9856 33.229 28.1366 33.1696 28.2634C33.1103 28.3901 32.9591 28.4445 32.8317 28.3854C32.7044 28.3263 32.6494 28.1763 32.7087 28.0495ZM40.0466 27.8425C40.1739 27.7835 40.3251 27.8388 40.3845 27.9655C40.4435 28.0922 40.3885 28.2423 40.2614 28.3014C40.1342 28.3605 39.983 28.306 39.9235 28.1794C39.8641 28.0526 39.9192 27.9016 40.0466 27.8425ZM36.5104 27.7438C36.6708 27.7441 36.8005 27.8741 36.8005 28.0339C36.8004 28.1936 36.6708 28.3227 36.5104 28.3229C36.3499 28.3229 36.2195 28.1937 36.2194 28.0339C36.2194 27.874 36.3499 27.7438 36.5104 27.7438ZM35.2302 27.6423C35.3882 27.67 35.4941 27.8199 35.4665 27.9772C35.4386 28.1346 35.2876 28.2401 35.1296 28.2126C34.9714 28.1848 34.8654 28.0341 34.8933 27.8766C34.9213 27.7194 35.0722 27.6145 35.2302 27.6423ZM37.7878 27.6237C37.9459 27.5959 38.0967 27.7007 38.1247 27.8581C38.1526 28.0155 38.0474 28.1662 37.8894 28.194C37.7312 28.2218 37.5803 28.1161 37.5524 27.9587C37.5246 27.8014 37.6299 27.6517 37.7878 27.6237ZM29.1823 27.6676C29.2533 27.597 29.3682 27.597 29.4392 27.6676C29.51 27.7383 29.5101 27.8529 29.4392 27.9235C29.3682 27.9938 29.2532 27.9939 29.1823 27.9235C29.1114 27.8529 29.1116 27.7383 29.1823 27.6676ZM30.3483 27.5466C30.4258 27.4551 30.5628 27.4434 30.655 27.5202C30.7472 27.5972 30.7595 27.734 30.6823 27.8259C30.6049 27.9177 30.467 27.9303 30.3747 27.8532C30.2824 27.7761 30.2709 27.6384 30.3483 27.5466ZM33.6149 27.4928C33.67 27.3428 33.8372 27.2653 33.988 27.32C34.1387 27.3747 34.2165 27.541 34.1618 27.6911C34.1069 27.8413 33.9397 27.9186 33.7888 27.8639C33.638 27.8092 33.56 27.6431 33.6149 27.4928ZM39.0261 27.2839C39.1769 27.2293 39.3432 27.3065 39.3981 27.4567C39.453 27.6069 39.3752 27.7731 39.2243 27.8278C39.0736 27.8822 38.9073 27.8048 38.8522 27.655C38.7973 27.5047 38.8752 27.3386 39.0261 27.2839ZM42.4802 27.3337C42.5723 27.2568 42.7094 27.2685 42.7868 27.36C42.8642 27.4519 42.8527 27.5896 42.7604 27.6667C42.6682 27.7437 42.5302 27.7312 42.4528 27.6393C42.3755 27.5475 42.388 27.4107 42.4802 27.3337ZM43.7438 27.3971C43.8148 27.3269 43.9298 27.3266 44.0007 27.3971C44.0715 27.4677 44.0713 27.5823 44.0007 27.653C43.9297 27.7237 43.8148 27.7236 43.7438 27.653C43.6729 27.5823 43.6729 27.4678 43.7438 27.3971ZM31.4333 27.2848C31.5139 27.1704 31.6728 27.1431 31.7878 27.2233C31.9026 27.3036 31.9308 27.4614 31.8503 27.5759C31.7698 27.6904 31.6109 27.7184 31.4958 27.6384C31.3807 27.5581 31.3527 27.3994 31.4333 27.2848ZM41.2878 27.1091C41.4028 27.0288 41.5616 27.0561 41.6423 27.1706C41.7229 27.2852 41.6949 27.4438 41.5798 27.5241C41.4647 27.6043 41.3059 27.5762 41.2253 27.4616C41.1447 27.347 41.1728 27.1893 41.2878 27.1091ZM35.902 26.8083C36.082 26.824 36.2147 26.9816 36.1989 27.1608C36.1831 27.3398 36.0252 27.4722 35.8454 27.4567C35.6655 27.441 35.532 27.2833 35.5476 27.1042C35.5633 26.925 35.7221 26.7926 35.902 26.8083ZM37.0261 26.8063C37.2059 26.7907 37.3646 26.9232 37.3806 27.1022C37.3963 27.2813 37.2635 27.4399 37.0837 27.4557C36.9037 27.4714 36.7449 27.3381 36.7292 27.1589C36.7137 26.9799 36.8463 26.8221 37.0261 26.8063ZM32.4226 26.8942C32.5029 26.7558 32.681 26.7089 32.82 26.7887C32.9591 26.8687 33.0068 27.0458 32.9265 27.1843C32.8461 27.3226 32.668 27.3696 32.529 27.2897C32.3903 27.2096 32.3424 27.0325 32.4226 26.8942ZM40.1853 26.735C40.3243 26.6551 40.5024 26.702 40.5827 26.8405C40.6629 26.9789 40.6151 27.156 40.4763 27.236C40.3373 27.3159 40.1592 27.2688 40.0788 27.1305C39.9985 26.9921 40.0463 26.815 40.1853 26.735ZM34.7946 26.6149C34.969 26.6614 35.0726 26.8397 35.0261 27.0134C34.9793 27.1871 34.8002 27.2904 34.6257 27.2438C34.4513 27.1973 34.3476 27.0191 34.3942 26.8454C34.441 26.6717 34.6202 26.5686 34.7946 26.6149ZM38.1325 26.611C38.3069 26.5645 38.487 26.6669 38.5339 26.8405C38.5806 27.0142 38.4768 27.1933 38.3024 27.2399C38.1279 27.2865 37.9478 27.1832 37.9011 27.0094C37.8545 26.8359 37.9583 26.6577 38.1325 26.611ZM33.3034 26.3913C33.3798 26.2282 33.5742 26.158 33.738 26.2341C33.9017 26.3101 33.9725 26.5037 33.8962 26.6667C33.8198 26.8296 33.6253 26.8999 33.4616 26.8239C33.2979 26.7479 33.2271 26.5543 33.3034 26.3913ZM39.1882 26.2262C39.3519 26.1502 39.5464 26.2214 39.6228 26.3844C39.699 26.5475 39.6282 26.7411 39.4645 26.8171C39.3009 26.8928 39.1063 26.8218 39.03 26.6589C38.954 26.496 39.0247 26.3022 39.1882 26.2262ZM29.196 26.3825C29.2882 26.3055 29.4262 26.3172 29.5036 26.4089C29.581 26.5007 29.5685 26.6384 29.4763 26.7155C29.384 26.7923 29.2469 26.7799 29.1696 26.6882C29.0923 26.5963 29.1039 26.4596 29.196 26.3825ZM30.3112 26.3122C30.4106 26.2135 30.5713 26.2134 30.6706 26.3122C30.77 26.4111 30.77 26.5716 30.6706 26.6706C30.5713 26.7694 30.4106 26.7693 30.3112 26.6706C30.2119 26.5716 30.2119 26.4111 30.3112 26.3122ZM36.4186 25.9186C36.6192 25.9188 36.7819 26.0812 36.7819 26.2809C36.7818 26.4806 36.6191 26.6421 36.4186 26.6423C36.218 26.6423 36.0545 26.4807 36.0544 26.2809C36.0544 26.081 36.2179 25.9186 36.4186 25.9186ZM28.027 26.2995C28.1093 26.2422 28.2224 26.2625 28.28 26.3444C28.3374 26.4263 28.3182 26.5391 28.236 26.5964C28.1539 26.6536 28.0407 26.6332 27.9831 26.5514C27.9256 26.4696 27.945 26.3568 28.027 26.2995ZM42.3825 26.1716C42.4818 26.0727 42.6425 26.0728 42.7419 26.1716C42.8413 26.2705 42.8413 26.431 42.7419 26.53C42.6426 26.6286 42.4818 26.6286 42.3825 26.53C42.2832 26.431 42.2832 26.2705 42.3825 26.1716ZM31.3532 26.0993C31.4564 25.9768 31.6404 25.9604 31.7634 26.0632C31.8863 26.166 31.9017 26.3489 31.7985 26.4714C31.6952 26.5935 31.5123 26.6092 31.3894 26.5065C31.2666 26.4038 31.2504 26.2217 31.3532 26.0993ZM37.3796 25.8415C37.5773 25.8068 37.7656 25.9386 37.8005 26.1354C37.8353 26.3322 37.7032 26.5197 37.5056 26.5544C37.3081 26.5889 37.1197 26.458 37.0847 26.2614C37.0498 26.0646 37.1819 25.8762 37.3796 25.8415ZM35.4587 25.8288C35.656 25.8637 35.7873 26.0511 35.7526 26.2477C35.7178 26.4446 35.5294 26.5764 35.3317 26.5417C35.1343 26.5069 35.0022 26.3194 35.0368 26.1227C35.0717 25.9259 35.261 25.7941 35.4587 25.8288ZM43.5954 26.1872C43.6728 26.0953 43.8108 26.0827 43.903 26.1598C43.9952 26.2369 44.0067 26.3737 43.9294 26.4655C43.852 26.5573 43.715 26.5697 43.6228 26.4928C43.5306 26.4158 43.5183 26.279 43.5954 26.1872ZM41.2311 25.9938C41.3542 25.891 41.5381 25.9075 41.6413 26.03C41.7441 26.1524 41.7279 26.3345 41.6052 26.4372C41.4822 26.54 41.2982 26.5245 41.195 26.402C41.0918 26.2796 41.1082 26.0966 41.2311 25.9938ZM44.8513 26.0309C44.9089 25.9493 45.0221 25.9297 45.1042 25.987C45.1864 26.0443 45.2067 26.1571 45.1491 26.2389C45.0916 26.3208 44.9784 26.3402 44.8962 26.2829C44.814 26.2256 44.7937 26.1128 44.8513 26.0309ZM38.3122 25.5993C38.5008 25.5309 38.7103 25.6283 38.779 25.8161C38.8475 26.0038 38.7498 26.2116 38.5612 26.28C38.3726 26.3483 38.1641 26.251 38.0954 26.0632C38.027 25.8755 38.1239 25.6677 38.3122 25.5993ZM34.0622 25.7907C34.1308 25.603 34.3395 25.5058 34.528 25.5739C34.7166 25.6422 34.8144 25.85 34.7458 26.0378C34.6772 26.2255 34.4685 26.3227 34.28 26.2546C34.0915 26.1863 33.9939 25.9784 34.0622 25.7907ZM32.3083 25.7555C32.4119 25.6082 32.6164 25.5723 32.7644 25.6755C32.912 25.7787 32.9479 25.9814 32.8444 26.1286C32.7408 26.2759 32.5364 26.3118 32.3884 26.2087C32.2408 26.1055 32.2051 25.9028 32.3083 25.7555ZM40.1608 25.6657C40.3088 25.5625 40.5133 25.5984 40.6169 25.7458C40.7203 25.893 40.6844 26.0956 40.5368 26.1989C40.3889 26.302 40.1844 26.2669 40.0808 26.1198C39.9772 25.9725 40.0131 25.7689 40.1608 25.6657ZM39.1892 25.1999C39.3628 25.1 39.5847 25.159 39.6853 25.3317C39.7856 25.5048 39.7263 25.7269 39.5524 25.8268C39.3787 25.9265 39.1567 25.867 39.0563 25.694C38.956 25.521 39.0154 25.2998 39.1892 25.1999ZM33.1608 25.2946C33.2611 25.1217 33.4832 25.0622 33.6569 25.1618C33.8308 25.2617 33.8911 25.4838 33.7907 25.6569C33.6903 25.8299 33.4675 25.8887 33.2936 25.7887C33.12 25.6887 33.0605 25.4676 33.1608 25.2946ZM30.4392 25.1305C30.5621 25.0278 30.7451 25.0434 30.8483 25.1657C30.9515 25.2882 30.9361 25.4711 30.8132 25.5739C30.6902 25.6767 30.5063 25.6603 30.403 25.5378C30.3 25.4153 30.3163 25.2333 30.4392 25.1305ZM29.3747 25.1598C29.4898 25.0796 29.6486 25.1078 29.7292 25.2223C29.8098 25.3369 29.7818 25.4946 29.6667 25.5749C29.5516 25.6551 29.3928 25.6279 29.3122 25.5134C29.2316 25.3988 29.2597 25.2401 29.3747 25.1598ZM42.1325 25.0837C42.2357 24.9613 42.4187 24.945 42.5417 25.0475C42.6647 25.1503 42.6811 25.3332 42.5778 25.4557C42.4746 25.578 42.2916 25.5936 42.1686 25.4909C42.0457 25.3882 42.0295 25.2062 42.1325 25.0837ZM31.4392 24.9567C31.5669 24.8295 31.7743 24.8295 31.902 24.9567C32.0298 25.0839 32.0298 25.2904 31.902 25.4176C31.7743 25.5448 31.5669 25.5448 31.4392 25.4176C31.3114 25.2905 31.3115 25.0839 31.4392 24.9567ZM41.0212 24.945C41.1489 24.8178 41.3563 24.8178 41.4841 24.945C41.6118 25.0722 41.6118 25.2787 41.4841 25.4059C41.3563 25.533 41.1489 25.5331 41.0212 25.4059C40.8935 25.2788 40.8935 25.0722 41.0212 24.945ZM43.2966 25.0593C43.3771 24.9447 43.536 24.9167 43.6511 24.9968C43.7662 25.077 43.7942 25.2357 43.7136 25.3503C43.6329 25.4646 43.4741 25.492 43.3591 25.4118C43.2443 25.3315 43.2161 25.1737 43.2966 25.0593ZM28.2653 25.0368C28.3696 24.9768 28.5029 25.0121 28.5632 25.1159C28.6234 25.2198 28.5874 25.3528 28.4831 25.4128C28.3789 25.4725 28.2455 25.4373 28.1853 25.3337C28.125 25.2298 28.161 25.0968 28.2653 25.0368ZM39.9831 24.654C40.1369 24.5258 40.3659 24.5459 40.4948 24.6989C40.6239 24.852 40.6037 25.0802 40.4499 25.2087C40.2961 25.3371 40.0672 25.3168 39.9382 25.1637C39.8093 25.0106 39.8294 24.7824 39.9831 24.654ZM32.3591 24.651C32.488 24.498 32.717 24.4779 32.8708 24.6061C33.0246 24.7346 33.0448 24.9628 32.9157 25.1159C32.7867 25.269 32.5578 25.2892 32.404 25.1608C32.2503 25.0324 32.2302 24.8042 32.3591 24.651ZM44.4948 24.8649C44.555 24.7611 44.6884 24.7249 44.7927 24.7848C44.8968 24.8448 44.932 24.9779 44.8718 25.0817C44.8115 25.1854 44.6782 25.2207 44.5739 25.1608C44.47 25.1008 44.4348 24.9686 44.4948 24.8649ZM27.1286 24.7526C27.2195 24.7105 27.3274 24.75 27.3698 24.8405C27.4122 24.9311 27.3729 25.0385 27.2819 25.0807C27.191 25.1229 27.0831 25.0834 27.0407 24.9928C26.9985 24.9023 27.0377 24.7948 27.1286 24.7526ZM45.945 24.4069C46.036 24.4491 46.0753 24.5566 46.0329 24.6471C45.9905 24.7376 45.8826 24.7771 45.7917 24.735C45.7007 24.6928 45.6614 24.5844 45.7038 24.4938C45.7464 24.4035 45.8542 24.3648 45.945 24.4069ZM30.7224 24.0202C30.8704 23.917 31.0748 23.9529 31.1784 24.1003C31.282 24.2476 31.2463 24.4512 31.0983 24.5544C30.9504 24.6575 30.7459 24.6215 30.6423 24.4743C30.5387 24.327 30.5746 24.1234 30.7224 24.0202ZM41.7429 24.0866C41.8464 23.9395 42.0501 23.9037 42.1979 24.0065C42.3459 24.1097 42.3826 24.3133 42.279 24.4606C42.1754 24.608 41.9709 24.6439 41.8229 24.5407C41.675 24.4375 41.6392 24.234 41.7429 24.0866ZM40.6696 23.9801C40.7986 23.8271 41.0276 23.8069 41.1813 23.9352C41.3351 24.0637 41.3552 24.2919 41.2263 24.445C41.0973 24.598 40.8683 24.6182 40.7145 24.4899C40.5608 24.3614 40.5406 24.1333 40.6696 23.9801ZM29.7077 24.0182C29.8467 23.9385 30.024 23.9863 30.1042 24.1247C30.1844 24.2631 30.1368 24.4403 29.9978 24.5202C29.8588 24.5998 29.6815 24.552 29.6013 24.4137C29.521 24.2753 29.5686 24.0982 29.7077 24.0182ZM31.6813 23.8786C31.8351 23.7501 32.065 23.7695 32.194 23.9225C32.323 24.0756 32.3027 24.3038 32.1491 24.4323C31.9955 24.5607 31.7665 24.5411 31.6374 24.3884C31.5085 24.2354 31.528 24.0071 31.6813 23.8786ZM42.861 24.0309C42.9413 23.8925 43.1194 23.8445 43.2585 23.9245C43.3975 24.0044 43.4451 24.1815 43.3649 24.32C43.2846 24.4585 43.1066 24.5064 42.9675 24.4264C42.8285 24.3466 42.781 24.1694 42.861 24.0309ZM28.654 23.8639C28.7813 23.8048 28.9335 23.8592 28.9929 23.986C29.0522 24.1127 28.997 24.2637 28.8698 24.3229C28.7425 24.382 28.5904 24.3275 28.531 24.2009C28.4716 24.0742 28.527 23.9232 28.654 23.8639ZM44.0036 23.8053C44.0631 23.6787 44.2142 23.6242 44.3415 23.6833C44.4687 23.7424 44.5237 23.8925 44.4645 24.0192C44.4052 24.146 44.254 24.2014 44.1267 24.1423C43.9993 24.0831 43.9442 23.9322 44.0036 23.8053ZM27.5827 23.5505C27.6959 23.5094 27.8208 23.5676 27.862 23.6803C27.903 23.793 27.8452 23.9177 27.7321 23.9587C27.6191 23.9996 27.4942 23.9412 27.4528 23.8288C27.4117 23.7162 27.4697 23.5916 27.5827 23.5505ZM41.2282 23.1969C41.3287 23.0241 41.5506 22.9652 41.7243 23.0651C41.898 23.1651 41.9575 23.3862 41.8571 23.5593C41.7567 23.7322 41.5348 23.791 41.361 23.6911C41.1872 23.5911 41.1279 23.37 41.2282 23.1969ZM45.1491 23.4069C45.1903 23.2942 45.3153 23.236 45.4284 23.277C45.5416 23.318 45.5995 23.4427 45.5583 23.5553C45.5171 23.668 45.3922 23.7262 45.279 23.6852C45.1659 23.6441 45.1079 23.5196 45.1491 23.4069ZM31.1501 22.9997C31.3239 22.9 31.5459 22.9595 31.6462 23.1325C31.7465 23.3055 31.6871 23.5267 31.5134 23.6266C31.3395 23.7266 31.1167 23.6669 31.0163 23.4938C30.9163 23.3208 30.9764 23.0995 31.1501 22.9997ZM30.1804 22.9743C30.344 22.8983 30.5385 22.9686 30.6149 23.1315C30.6913 23.2945 30.6204 23.4881 30.4567 23.5641C30.293 23.6402 30.0985 23.5699 30.0222 23.4069C29.9459 23.2439 30.0167 23.0503 30.1804 22.9743ZM42.3034 23.1169C42.3797 22.9539 42.5743 22.8838 42.738 22.9596C42.9017 23.0357 42.9725 23.2292 42.8962 23.3923C42.8198 23.5551 42.6253 23.6255 42.4616 23.5495C42.2982 23.4734 42.2272 23.2798 42.3034 23.1169ZM26.5134 23.0739C26.6103 23.0482 26.7101 23.1054 26.736 23.2018C26.7619 23.2983 26.704 23.3977 26.6071 23.4235C26.5102 23.4493 26.4105 23.392 26.3845 23.2956C26.3585 23.199 26.4164 23.0998 26.5134 23.0739ZM29.1804 22.7966C29.3312 22.7419 29.4984 22.8193 29.5534 22.9694C29.6083 23.1197 29.5305 23.2858 29.3796 23.3405C29.2287 23.3952 29.0615 23.3179 29.0065 23.1676C28.9518 23.0175 29.0298 22.8514 29.1804 22.7966ZM43.3952 22.8678C43.4503 22.7178 43.6175 22.6404 43.7683 22.695C43.9189 22.7498 43.996 22.916 43.9411 23.0661C43.8862 23.2163 43.7199 23.2936 43.569 23.2389C43.4181 23.1842 43.3403 23.0181 43.3952 22.8678ZM46.4978 22.7048C46.5946 22.7306 46.6524 22.83 46.6267 22.9264C46.6007 23.0229 46.5009 23.0801 46.404 23.0544C46.307 23.0285 46.2491 22.9292 46.2751 22.8327C46.3012 22.7364 46.401 22.679 46.4978 22.7048ZM28.1706 22.4626C28.3062 22.4264 28.4456 22.5063 28.4821 22.6413C28.5185 22.7764 28.4382 22.9156 28.3024 22.9518C28.1669 22.988 28.0275 22.908 27.9909 22.7731C27.9546 22.638 28.035 22.4988 28.1706 22.4626ZM41.6413 22.3298C41.71 22.142 41.9185 22.0456 42.1071 22.1139C42.2957 22.1823 42.3935 22.39 42.3249 22.5778C42.2562 22.7655 42.0467 22.862 41.8581 22.7936C41.6698 22.7251 41.5727 22.5174 41.6413 22.3298ZM44.7927 22.2702C44.9282 22.3064 45.0085 22.4448 44.9724 22.5798C44.936 22.7149 44.7966 22.7957 44.6608 22.7594C44.5251 22.7232 44.4448 22.584 44.4811 22.4489C44.5176 22.3139 44.657 22.234 44.7927 22.2702ZM30.779 22.0436C30.9676 21.9754 31.1762 22.0717 31.2448 22.2594C31.3135 22.4473 31.2157 22.6549 31.027 22.7233C30.8386 22.7915 30.63 22.6951 30.5612 22.5075C30.4926 22.3197 30.5904 22.112 30.779 22.0436ZM29.8288 21.8503C30.0032 21.8039 30.1825 21.9071 30.2292 22.0807C30.2758 22.2544 30.1722 22.4326 29.9978 22.4792C29.8233 22.5257 29.6441 22.4225 29.5974 22.2487C29.5508 22.0751 29.6544 21.8968 29.8288 21.8503ZM43.0876 21.8346C43.2618 21.8813 43.3657 22.0595 43.319 22.2331C43.2723 22.4068 43.0922 22.5101 42.9177 22.4635C42.7433 22.4169 42.6395 22.2378 42.6862 22.0641C42.7331 21.8905 42.9132 21.7881 43.0876 21.8346ZM27.1706 21.9684C27.2891 21.9478 27.4017 22.0262 27.4226 22.1442C27.4435 22.2623 27.3644 22.3753 27.2458 22.3962C27.1273 22.4168 27.0147 22.3374 26.9938 22.2194C26.973 22.1013 27.052 21.9893 27.1706 21.9684ZM45.7917 21.6823C45.9102 21.7031 45.9901 21.8153 45.9694 21.9333C45.9485 22.0513 45.835 22.1307 45.7165 22.11C45.5979 22.0892 45.5188 21.9762 45.5397 21.8581C45.5607 21.7402 45.6733 21.6617 45.7917 21.6823ZM28.8757 21.5026C29.0336 21.4751 29.1846 21.5798 29.2126 21.737C29.2405 21.8945 29.1344 22.0452 28.9763 22.0729C28.8181 22.1007 28.6672 21.995 28.6394 21.8376C28.6117 21.6802 28.7177 21.5304 28.8757 21.5026ZM44.0554 21.3962C44.2133 21.424 44.3184 21.5738 44.2907 21.7311C44.2628 21.8886 44.112 21.9942 43.9538 21.9665C43.7959 21.9385 43.6906 21.7879 43.7185 21.6305C43.7465 21.4733 43.8973 21.3684 44.0554 21.3962ZM42.3181 21.111C42.5158 21.1457 42.6478 21.3331 42.613 21.53C42.578 21.7267 42.3897 21.8576 42.1921 21.8229C41.9944 21.7882 41.8623 21.6008 41.8972 21.404C41.9321 21.2072 42.1205 21.0764 42.3181 21.111ZM30.5808 21.0368C30.7783 21.0023 30.9668 21.134 31.0017 21.3307C31.0363 21.5274 30.9042 21.7149 30.7067 21.7497C30.509 21.7844 30.3207 21.6526 30.2858 21.4557C30.2512 21.259 30.3832 21.0715 30.5808 21.0368ZM26.1999 21.3141C26.2996 21.3056 26.3872 21.379 26.3962 21.4782C26.4049 21.5778 26.3311 21.6658 26.2311 21.6745C26.1313 21.6831 26.0437 21.6098 26.0349 21.5104C26.0261 21.4109 26.0999 21.3228 26.1999 21.3141ZM27.9392 20.9987C28.079 20.9865 28.2021 21.0891 28.2145 21.2282C28.2268 21.3676 28.1231 21.4914 27.9831 21.5036C27.8434 21.5156 27.7201 21.4122 27.7077 21.2731C27.6955 21.1337 27.7992 21.0109 27.9392 20.9987ZM29.6784 20.6823C29.8582 20.6667 30.017 20.7992 30.0329 20.9782C30.0487 21.1574 29.915 21.316 29.7351 21.3317C29.5553 21.3472 29.3965 21.2148 29.3806 21.0358C29.3648 20.8566 29.4984 20.698 29.6784 20.6823ZM43.2351 20.6657C43.415 20.6814 43.5477 20.84 43.5319 21.0192C43.516 21.1982 43.3573 21.3308 43.1774 21.3151C42.9978 21.2992 42.8651 21.1414 42.8806 20.9626C42.8963 20.7834 43.0551 20.65 43.2351 20.6657ZM44.9899 20.8005C45.1299 20.8127 45.2336 20.9355 45.2214 21.0749C45.209 21.2141 45.0858 21.3174 44.946 21.3053C44.8061 21.2932 44.7025 21.1701 44.7145 21.0309C44.7268 20.8916 44.85 20.7884 44.9899 20.8005ZM46.7458 20.9343C46.8455 20.9431 46.9193 21.0303 46.9108 21.1296C46.9021 21.2291 46.8136 21.3033 46.7136 21.2946C46.6137 21.2858 46.5398 21.1978 46.5485 21.0983C46.5574 20.9988 46.6459 20.9255 46.7458 20.9343ZM42.3513 20.0856C42.5519 20.0857 42.7145 20.2481 42.7145 20.4479C42.7145 20.6477 42.5519 20.8102 42.3513 20.8102C42.1505 20.8102 41.988 20.6478 41.988 20.4479C41.988 20.248 42.1505 20.0856 42.3513 20.0856ZM27.0397 20.3395C27.1601 20.3396 27.2575 20.4364 27.2575 20.5563C27.2575 20.6762 27.1601 20.773 27.0397 20.7731C26.9193 20.7731 26.822 20.6762 26.822 20.5563C26.822 20.4364 26.9193 20.3395 27.0397 20.3395ZM28.8005 20.1755C28.9608 20.1757 29.0905 20.3048 29.0905 20.4645C29.0905 20.6243 28.9609 20.7543 28.8005 20.7546C28.6399 20.7546 28.5095 20.6244 28.5095 20.4645C28.5095 20.3047 28.6399 20.1755 28.8005 20.1755ZM30.5603 20.0114C30.761 20.0114 30.9235 20.1738 30.9235 20.3737C30.9234 20.5735 30.7609 20.735 30.5603 20.735C30.3596 20.735 30.1971 20.5735 30.197 20.3737C30.197 20.1738 30.3595 20.0114 30.5603 20.0114ZM44.112 20.0671C44.2724 20.0673 44.402 20.1973 44.402 20.3571C44.4018 20.5167 44.2723 20.6459 44.112 20.6462C43.9515 20.6462 43.8212 20.5168 43.821 20.3571C43.821 20.1972 43.9514 20.0671 44.112 20.0671ZM45.8718 20.0485C45.9921 20.0485 46.0894 20.1455 46.0895 20.2653C46.0895 20.3852 45.9922 20.4831 45.8718 20.4831C45.7513 20.4831 45.654 20.3852 45.654 20.2653C45.6541 20.1455 45.7514 20.0485 45.8718 20.0485ZM29.7341 19.5065C29.9138 19.5224 30.0466 19.6801 30.031 19.8591C30.0152 20.0383 29.8564 20.1706 29.6765 20.155C29.4966 20.1391 29.3638 19.9815 29.3796 19.8024C29.3954 19.6233 29.5541 19.4908 29.7341 19.5065ZM43.1765 19.4899C43.3563 19.4743 43.515 19.6068 43.531 19.7858C43.5467 19.965 43.4131 20.1236 43.2331 20.1393C43.0534 20.1548 42.8946 20.0223 42.8786 19.8434C42.8629 19.6642 42.9965 19.5056 43.1765 19.4899ZM27.9655 19.5173C28.1055 19.5295 28.2092 19.6523 28.197 19.7917C28.1847 19.9309 28.0615 20.0342 27.9216 20.0221C27.7817 20.01 27.6781 19.887 27.6901 19.7477C27.7024 19.6084 27.8256 19.5052 27.9655 19.5173ZM26.1979 19.527C26.2979 19.5358 26.3717 19.6238 26.363 19.7233C26.3542 19.8229 26.2657 19.8971 26.1657 19.8884C26.066 19.8795 25.9921 19.7914 26.0007 19.6921C26.0094 19.5925 26.098 19.5183 26.1979 19.527ZM44.9284 19.319C45.0684 19.3068 45.1916 19.4101 45.2038 19.5495C45.2158 19.6887 45.1122 19.8117 44.9724 19.8239C44.8326 19.8358 44.7093 19.7326 44.697 19.5934C44.6847 19.4541 44.7884 19.3312 44.9284 19.319ZM42.2048 19.0719C42.4023 19.0373 42.5906 19.1683 42.6257 19.3649C42.6605 19.5616 42.5292 19.7499 42.3317 19.7848C42.134 19.8195 41.9447 19.6877 41.9099 19.4909C41.8751 19.2942 42.0073 19.1068 42.2048 19.0719ZM30.7194 18.9987C30.9171 19.0334 31.0492 19.2208 31.0144 19.4176C30.9794 19.6144 30.7911 19.7453 30.5935 19.7106C30.3958 19.6759 30.2637 19.4885 30.2985 19.2917C30.3335 19.0949 30.5218 18.964 30.7194 18.9987ZM46.6804 19.1471C46.7803 19.1385 46.8688 19.2117 46.8776 19.3112C46.8864 19.4108 46.8116 19.4988 46.7116 19.5075C46.6119 19.516 46.5243 19.4426 46.5153 19.3434C46.5066 19.2439 46.5804 19.1559 46.6804 19.1471ZM28.9577 18.8551C29.1156 18.883 29.2207 19.0328 29.1931 19.1901C29.1652 19.3476 29.0143 19.4532 28.8561 19.4255C28.6981 19.3976 28.5929 19.2469 28.6208 19.0895C28.6489 18.9323 28.7997 18.8274 28.9577 18.8551ZM43.9353 18.7487C44.0933 18.721 44.2441 18.8258 44.2722 18.9831C44.3001 19.1406 44.194 19.2912 44.0358 19.319C43.8779 19.3465 43.7278 19.241 43.6999 19.0837C43.6722 18.9263 43.7772 18.7765 43.9353 18.7487ZM27.195 18.7126C27.3136 18.7334 27.3927 18.8455 27.3718 18.9635C27.3509 19.0816 27.2384 19.16 27.1198 19.1393C27.0012 19.1185 26.9222 19.0064 26.9431 18.8884C26.964 18.7703 27.0765 18.6919 27.195 18.7126ZM29.9938 18.3581C30.1681 18.4047 30.2718 18.583 30.2253 18.7565C30.1785 18.9303 29.9984 19.0335 29.8239 18.987C29.6497 18.9403 29.5468 18.7621 29.5935 18.5885C29.6402 18.4148 29.8193 18.3115 29.9938 18.3581ZM42.9138 18.3415C43.0881 18.295 43.2673 18.3984 43.3142 18.5719C43.3609 18.7457 43.2572 18.9248 43.0827 18.9714C42.9083 19.0177 42.7291 18.9145 42.6823 18.7409C42.6356 18.5671 42.7393 18.388 42.9138 18.3415ZM45.6657 18.4255C45.7843 18.4048 45.8977 18.4842 45.9186 18.6022C45.9394 18.7202 45.8595 18.8324 45.7409 18.8532C45.6224 18.8738 45.5099 18.7954 45.489 18.6774C45.4681 18.5593 45.5471 18.4463 45.6657 18.4255ZM41.8845 18.0983C42.0731 18.03 42.2816 18.1264 42.3503 18.3141C42.4189 18.502 42.3212 18.7096 42.1325 18.778C41.944 18.8461 41.7354 18.7498 41.6667 18.5622C41.598 18.3744 41.6958 18.1667 41.8845 18.0983ZM30.5876 18.2438C30.6564 18.0563 30.8649 17.9597 31.0534 18.028C31.2418 18.0965 31.3388 18.3042 31.2702 18.4919C31.2015 18.6796 30.993 18.776 30.8044 18.7077C30.6159 18.6393 30.519 18.4316 30.5876 18.2438ZM28.2507 18.0632C28.3863 18.0994 28.4666 18.2377 28.4304 18.3727C28.394 18.5079 28.2546 18.5886 28.1188 18.5524C27.9832 18.5161 27.9028 18.377 27.9392 18.2419C27.9755 18.1067 28.115 18.0269 28.2507 18.0632ZM44.6091 17.8708C44.7448 17.8346 44.8842 17.9143 44.9206 18.0495C44.957 18.1846 44.8766 18.3238 44.7409 18.36C44.6052 18.3962 44.4658 18.3155 44.4294 18.1803C44.3932 18.0453 44.4736 17.9071 44.6091 17.8708ZM28.9704 17.7555C29.0253 17.6054 29.1917 17.5273 29.3425 17.5817C29.4933 17.6364 29.5711 17.8026 29.5163 17.9528C29.4614 18.1029 29.295 18.181 29.1442 18.1266C28.9934 18.072 28.9157 17.9057 28.9704 17.7555ZM26.5075 17.7673C26.6045 17.7931 26.6624 17.8924 26.6364 17.9889C26.6104 18.0854 26.5107 18.1427 26.4138 18.1169C26.3169 18.091 26.259 17.9916 26.2849 17.8952C26.3108 17.7988 26.4107 17.7416 26.5075 17.7673ZM43.5319 17.4811C43.6828 17.4264 43.8501 17.5037 43.905 17.654C43.9596 17.8041 43.8818 17.9704 43.7311 18.0251C43.5804 18.0797 43.4132 18.0022 43.3581 17.8522C43.3032 17.702 43.3811 17.5359 43.5319 17.4811ZM30.0153 17.4294C30.0917 17.2663 30.2862 17.1951 30.4499 17.2712C30.6136 17.3472 30.6845 17.5417 30.6081 17.7048C30.5317 17.8676 30.3372 17.9378 30.1735 17.862C30.0098 17.786 29.939 17.5924 30.0153 17.4294ZM42.4548 17.2565C42.6185 17.1806 42.813 17.2517 42.8894 17.4147C42.9655 17.5777 42.8948 17.7713 42.7311 17.8473C42.5676 17.9232 42.373 17.8529 42.2966 17.6901C42.2202 17.5271 42.291 17.3325 42.4548 17.2565ZM41.3981 17.194C41.572 17.0941 41.7948 17.1537 41.8952 17.3268C41.9955 17.4999 41.9352 17.721 41.7614 17.821C41.5877 17.9207 41.3657 17.862 41.2653 17.6891C41.165 17.516 41.2243 17.294 41.3981 17.194ZM31.0544 17.2624C31.1548 17.0894 31.3767 17.0298 31.5505 17.1296C31.7243 17.2295 31.7837 17.4516 31.6833 17.6247C31.5828 17.7974 31.3609 17.8564 31.1872 17.7565C31.0134 17.6566 30.954 17.4355 31.0544 17.2624ZM46.3044 17.3981C46.4013 17.3723 46.501 17.4296 46.527 17.526C46.553 17.6226 46.4951 17.7219 46.3981 17.7477C46.3013 17.7734 46.2014 17.7162 46.1755 17.6198C46.1496 17.5233 46.2075 17.424 46.3044 17.3981ZM27.3522 17.2663C27.3934 17.1536 27.5193 17.0954 27.6325 17.1364C27.7455 17.1775 27.8034 17.3021 27.7624 17.4147C27.7212 17.5274 27.5963 17.5856 27.4831 17.5446C27.3699 17.5036 27.311 17.379 27.3522 17.2663ZM45.1794 16.8639C45.2926 16.8229 45.4175 16.8811 45.4587 16.9938C45.4996 17.1064 45.4418 17.2311 45.3288 17.2721C45.2157 17.3131 45.0898 17.2549 45.0485 17.1423C45.0073 17.0296 45.0663 16.905 45.1794 16.8639ZM28.447 16.8024C28.5064 16.6756 28.6575 16.6202 28.7849 16.6794C28.9122 16.7385 28.9673 16.8895 28.9079 17.0163C28.8486 17.1429 28.6973 17.1981 28.57 17.1393C28.4427 17.0802 28.3876 16.9292 28.447 16.8024ZM40.7624 16.3884C40.9161 16.2601 41.1451 16.2804 41.2741 16.4333C41.4032 16.5864 41.383 16.8146 41.2292 16.943C41.0754 17.0714 40.8465 17.0512 40.7175 16.8981C40.5887 16.745 40.6087 16.5168 40.7624 16.3884ZM44.0417 16.4997C44.169 16.4405 44.3212 16.4949 44.3806 16.6218C44.4398 16.7485 44.3847 16.8995 44.2575 16.9587C44.1302 17.0178 43.978 16.9624 43.9186 16.8356C43.8596 16.7091 43.9148 16.5589 44.0417 16.4997ZM31.6853 16.3757C31.8143 16.2228 32.0433 16.2034 32.197 16.3317C32.3507 16.4602 32.3709 16.6884 32.2419 16.8415C32.1129 16.9943 31.8839 17.0146 31.7302 16.8864C31.5764 16.7579 31.5562 16.5288 31.6853 16.3757ZM29.5466 16.5016C29.6269 16.3632 29.805 16.3152 29.944 16.3952C30.0831 16.4751 30.1307 16.6522 30.0505 16.7907C29.9702 16.9292 29.7921 16.9771 29.653 16.8971C29.5141 16.8173 29.4666 16.6401 29.5466 16.5016ZM30.6325 16.361C30.7361 16.2136 30.9406 16.1777 31.0886 16.2809C31.2365 16.3841 31.2723 16.5877 31.1686 16.735C31.0649 16.882 30.8614 16.9172 30.7136 16.8141C30.5657 16.711 30.5291 16.5083 30.6325 16.361ZM41.8132 16.2673C41.9612 16.1641 42.1656 16.2 42.2692 16.3473C42.3729 16.4947 42.3371 16.6982 42.1892 16.8014C42.0412 16.9046 41.8368 16.8686 41.7331 16.7214C41.6295 16.5741 41.6653 16.3705 41.8132 16.2673ZM42.9138 16.3014C43.0528 16.2218 43.23 16.2696 43.3103 16.4079C43.3905 16.5464 43.3429 16.7234 43.2038 16.8034C43.0648 16.883 42.8875 16.8353 42.8073 16.6969C42.7271 16.5585 42.7747 16.3814 42.9138 16.3014ZM27.1198 16.0876C27.2108 16.1298 27.2501 16.2372 27.2077 16.3278C27.1652 16.4182 27.0574 16.4569 26.9665 16.4147C26.8756 16.3724 26.8362 16.265 26.8786 16.1745C26.9211 16.084 27.0289 16.0454 27.1198 16.0876ZM39.9958 15.7057C40.1248 15.5526 40.3537 15.5324 40.5075 15.6608C40.6613 15.7893 40.6815 16.0175 40.5524 16.1706C40.4235 16.3235 40.1945 16.3436 40.0407 16.2155C39.887 16.0871 39.8669 15.8589 39.9958 15.7057ZM32.4616 15.613C32.6153 15.4846 32.8443 15.504 32.9733 15.6569C33.1023 15.81 33.0821 16.0382 32.9284 16.1667C32.7747 16.2951 32.5458 16.2756 32.4167 16.1227C32.2877 15.9696 32.3078 15.7414 32.4616 15.613ZM45.6296 15.7409C45.7205 15.6988 45.8284 15.7383 45.8708 15.8288C45.9132 15.9193 45.8738 16.0268 45.7829 16.069C45.692 16.1112 45.5841 16.0717 45.5417 15.9811C45.4995 15.8906 45.5387 15.7831 45.6296 15.7409ZM28.0397 15.7399C28.1001 15.6363 28.2334 15.6009 28.3376 15.6608C28.4417 15.7208 28.4779 15.8539 28.4177 15.9577C28.3574 16.0615 28.2231 16.0967 28.1188 16.0368C28.0148 15.9767 27.9796 15.8437 28.0397 15.7399ZM31.4274 15.4157C31.5552 15.2885 31.7626 15.2885 31.8903 15.4157C32.018 15.5429 32.0181 15.7494 31.8903 15.8766C31.7626 16.0037 31.5552 16.0038 31.4274 15.8766C31.2997 15.7495 31.2998 15.5429 31.4274 15.4157ZM41.0095 15.404C41.1372 15.2768 41.3446 15.2768 41.4724 15.404C41.5998 15.5311 41.5998 15.7368 41.4724 15.8639C41.3446 15.9911 41.1372 15.9911 41.0095 15.8639C40.8821 15.7368 40.882 15.5311 41.0095 15.404ZM29.1979 15.4723C29.2785 15.3577 29.4373 15.3296 29.5524 15.4098C29.6672 15.49 29.6951 15.6479 29.6149 15.7624C29.5344 15.877 29.3755 15.905 29.2604 15.8249C29.1453 15.7446 29.1173 15.5869 29.1979 15.4723ZM30.3337 15.3659C30.4368 15.2436 30.6199 15.2274 30.7429 15.3298C30.8659 15.4325 30.8822 15.6155 30.779 15.738C30.6759 15.8603 30.4928 15.8766 30.3698 15.7741C30.2468 15.6713 30.2305 15.4884 30.3337 15.3659ZM44.4284 15.4089C44.5327 15.3491 44.6661 15.3851 44.7263 15.4889C44.7863 15.5928 44.7504 15.7249 44.6462 15.7848C44.5419 15.8448 44.4086 15.8096 44.3483 15.7057C44.2882 15.6019 44.3241 15.4688 44.4284 15.4089ZM42.0983 15.2477C42.2213 15.145 42.4052 15.1606 42.5085 15.2829C42.6117 15.4054 42.5954 15.5883 42.4724 15.6911C42.3494 15.7937 42.1664 15.7781 42.0632 15.6559C41.96 15.5335 41.9756 15.3506 42.0983 15.2477ZM43.2448 15.2468C43.3599 15.1666 43.5188 15.1947 43.5993 15.3093C43.6797 15.4238 43.6516 15.5815 43.5368 15.6618C43.4217 15.742 43.2629 15.7139 43.1823 15.5993C43.102 15.4847 43.1298 15.3269 43.2448 15.2468ZM39.1208 15.1647C39.2212 14.9916 39.444 14.932 39.6179 15.0319C39.7914 15.1318 39.8507 15.3531 39.7507 15.526C39.6503 15.6991 39.4275 15.7588 39.2536 15.6589C39.0801 15.5589 39.0207 15.3377 39.1208 15.1647ZM33.3591 14.9948C33.5329 14.8951 33.7549 14.9546 33.8552 15.1276C33.9554 15.3006 33.8961 15.5218 33.7224 15.6218C33.5485 15.7217 33.3257 15.662 33.2253 15.4889C33.1252 15.3159 33.1854 15.0947 33.3591 14.9948ZM38.1657 14.7839C38.2344 14.5961 38.4429 14.4988 38.6315 14.5671C38.82 14.6354 38.9176 14.8432 38.8493 15.0309C38.7807 15.2188 38.5712 15.3161 38.3825 15.2477C38.1942 15.1792 38.0972 14.9715 38.1657 14.7839ZM34.3503 14.5417C34.5389 14.4733 34.7475 14.5706 34.8161 14.7585C34.8845 14.9462 34.7877 15.1539 34.5993 15.2223C34.4107 15.2907 34.2022 15.1934 34.1335 15.0055C34.0648 14.8177 34.1617 14.61 34.3503 14.5417ZM32.3747 14.6218C32.5227 14.5186 32.7271 14.5545 32.8308 14.7018C32.9344 14.8492 32.8977 15.0527 32.7497 15.1559C32.6018 15.2587 32.3982 15.223 32.2946 15.0759C32.191 14.9285 32.2267 14.7249 32.3747 14.6218ZM40.0671 14.693C40.1707 14.5457 40.3751 14.5098 40.5231 14.613C40.6708 14.7162 40.7066 14.9189 40.6032 15.0661C40.4996 15.2134 40.2952 15.2493 40.1472 15.1462C39.9996 15.043 39.9638 14.8403 40.0671 14.693ZM37.5798 14.28C37.7773 14.3147 37.9093 14.5022 37.8747 14.6989C37.8399 14.8956 37.6513 15.0273 37.4538 14.9928C37.2562 14.9582 37.1242 14.7706 37.1589 14.5739C37.1937 14.3771 37.3821 14.2452 37.5798 14.28ZM35.406 14.2673C35.6036 14.2326 35.7919 14.3635 35.8269 14.5602C35.8617 14.7571 35.7296 14.9445 35.5319 14.9792C35.3343 15.0139 35.146 14.883 35.111 14.6862C35.0762 14.4894 35.2083 14.302 35.406 14.2673ZM36.4929 14.1784C36.6936 14.1784 36.8571 14.3408 36.8571 14.5407C36.857 14.7405 36.6935 14.902 36.4929 14.902C36.2924 14.9018 36.1297 14.7403 36.1296 14.5407C36.1296 14.341 36.2924 14.1787 36.4929 14.1784ZM31.3063 14.3844C31.4293 14.2817 31.6123 14.2973 31.7155 14.4196C31.8187 14.5421 31.8033 14.725 31.6804 14.8278C31.5573 14.9306 31.3734 14.9142 31.2702 14.7917C31.1672 14.6692 31.1835 14.4872 31.3063 14.3844ZM27.7624 14.5827C27.8199 14.501 27.9332 14.4816 28.0153 14.5387C28.0975 14.5961 28.1178 14.7088 28.0602 14.7907C28.0026 14.8724 27.8895 14.8919 27.8073 14.8346C27.7253 14.7773 27.7049 14.6645 27.7624 14.5827ZM41.113 14.3503C41.2162 14.228 41.3992 14.2117 41.5222 14.3141C41.6451 14.4169 41.6614 14.5998 41.5583 14.7223C41.4551 14.8448 41.2712 14.8613 41.1481 14.7585C41.0252 14.6557 41.0098 14.4727 41.113 14.3503ZM30.1696 14.2926C30.269 14.1937 30.4296 14.1937 30.529 14.2926C30.6283 14.3916 30.6283 14.5521 30.529 14.651C30.4297 14.7495 30.2689 14.7496 30.1696 14.651C30.0703 14.5521 30.0703 14.3916 30.1696 14.2926ZM28.9821 14.3561C29.0595 14.2644 29.1965 14.252 29.2888 14.3288C29.381 14.4059 29.3935 14.5436 29.3161 14.6354C29.2387 14.7272 29.1007 14.7389 29.0085 14.6618C28.9163 14.5847 28.9047 14.448 28.9821 14.3561ZM33.446 14.0046C33.6097 13.9285 33.8052 13.9988 33.8815 14.1618C33.9578 14.3246 33.8867 14.5182 33.7233 14.5944C33.5596 14.6704 33.3641 14.6002 33.2878 14.4372C33.2117 14.2743 33.2826 14.0807 33.446 14.0046ZM39.0153 14.155C39.0917 13.992 39.2862 13.9218 39.4499 13.9977C39.6136 14.0738 39.6845 14.2673 39.6081 14.4303C39.5317 14.5934 39.3373 14.6636 39.1735 14.5876C39.0099 14.5115 38.939 14.3179 39.0153 14.155ZM42.2409 14.151C42.3403 14.0522 42.5019 14.0521 42.6013 14.151C42.7004 14.2499 42.7003 14.4105 42.6013 14.5094C42.5019 14.6084 42.3403 14.6084 42.2409 14.5094C42.1417 14.4105 42.1416 14.2499 42.2409 14.151ZM44.6755 14.2262C44.7577 14.1689 44.8718 14.1883 44.9294 14.2702C44.9868 14.352 44.9665 14.4648 44.8845 14.5221C44.8024 14.5794 44.6892 14.5598 44.6315 14.4782C44.5741 14.3965 44.5936 14.2837 44.6755 14.2262ZM43.4352 14.1071C43.5275 14.0301 43.6644 14.0417 43.7419 14.1335C43.8193 14.2253 43.8076 14.362 43.7155 14.4391C43.6233 14.5162 43.4853 14.5046 43.4079 14.4128C43.3305 14.3209 43.343 14.1842 43.4352 14.1071ZM34.6091 13.5817C34.7836 13.5352 34.9637 13.6384 35.0104 13.8122C35.0569 13.9857 34.9532 14.164 34.779 14.2106C34.6045 14.2572 34.4254 14.1539 34.3786 13.9801C34.332 13.8066 34.4348 13.6284 34.6091 13.5817ZM38.2858 13.5768C38.4603 13.6234 38.564 13.8025 38.5173 13.9762C38.4705 14.1499 38.2913 14.2532 38.1169 14.2067C37.9424 14.1602 37.8387 13.9811 37.8854 13.8073C37.9323 13.6338 38.1115 13.5306 38.2858 13.5768ZM32.4352 13.5856C32.5743 13.5057 32.7524 13.5527 32.8327 13.6911C32.913 13.8296 32.8653 14.0066 32.7263 14.0866C32.5872 14.1665 32.4091 14.1195 32.3288 13.9811C32.2486 13.8428 32.2965 13.6657 32.4352 13.5856ZM39.9851 13.6374C40.0654 13.4989 40.2434 13.451 40.3825 13.5309C40.5214 13.6108 40.5689 13.788 40.489 13.9264C40.4087 14.0649 40.2306 14.1127 40.0915 14.0329C39.9524 13.9529 39.9048 13.7758 39.9851 13.6374ZM35.8288 13.3669C36.0087 13.3513 36.1676 13.4836 36.1833 13.6628C36.199 13.842 36.0654 13.9996 35.8854 14.0153C35.7055 14.0309 35.5467 13.8986 35.531 13.7194C35.5153 13.5403 35.6489 13.3825 35.8288 13.3669ZM37.0671 13.3649C37.2468 13.3808 37.3797 13.5384 37.364 13.7175C37.3482 13.8967 37.1894 14.029 37.0095 14.0134C36.8296 13.9976 36.6969 13.8399 36.7126 13.6608C36.7283 13.4816 36.8871 13.3492 37.0671 13.3649ZM31.3317 13.2985C31.4468 13.2183 31.6056 13.2464 31.6862 13.361C31.7666 13.4756 31.7387 13.6334 31.6237 13.7135C31.5086 13.7937 31.3498 13.7656 31.2692 13.651C31.1889 13.5365 31.2169 13.3788 31.3317 13.2985ZM41.0612 13.2468C41.1418 13.1321 41.3006 13.104 41.4157 13.1843C41.5307 13.2645 41.5587 13.4222 41.4782 13.5368C41.3976 13.6514 41.2388 13.6795 41.1237 13.5993C41.0087 13.5191 40.9809 13.3613 41.0612 13.2468ZM33.6872 12.9938C33.838 12.9392 34.0043 13.0166 34.0593 13.1667C34.1141 13.3168 34.037 13.4829 33.8864 13.5378C33.7355 13.5924 33.5683 13.5151 33.5134 13.3649C33.4584 13.2147 33.5363 13.0485 33.6872 12.9938ZM30.1511 13.1559C30.2433 13.0788 30.3813 13.0904 30.4587 13.1823C30.536 13.2742 30.5235 13.4109 30.4313 13.488C30.3392 13.565 30.2022 13.5533 30.1247 13.4616C30.0473 13.3698 30.059 13.2331 30.1511 13.1559ZM38.7497 13.1296C38.8047 12.9795 38.972 12.9022 39.1227 12.9567C39.2736 13.0114 39.3513 13.1776 39.2966 13.3278C39.2417 13.4781 39.0744 13.5553 38.9235 13.5007C38.773 13.4458 38.6948 13.2797 38.7497 13.1296ZM28.9108 13.1686C28.9818 13.098 29.0977 13.098 29.1686 13.1686C29.2393 13.2393 29.2394 13.3539 29.1686 13.4245C29.0977 13.4952 28.9818 13.4952 28.9108 13.4245C28.8401 13.3539 28.8402 13.2393 28.9108 13.1686ZM42.2292 12.9958C42.3066 12.9039 42.4445 12.8923 42.5368 12.9694C42.6288 13.0465 42.6405 13.1833 42.5632 13.2751C42.4857 13.3667 42.3487 13.3784 42.2565 13.3014C42.1643 13.2244 42.1519 13.0876 42.2292 12.9958ZM43.4724 12.8991C43.5433 12.8284 43.6582 12.8284 43.7292 12.8991C43.8001 12.9698 43.8001 13.0843 43.7292 13.155C43.6583 13.2254 43.5433 13.2254 43.4724 13.155C43.4014 13.0843 43.4015 12.9698 43.4724 12.8991ZM35.0222 12.6276C35.1803 12.5998 35.3312 12.7055 35.3591 12.863C35.3868 13.0202 35.2816 13.17 35.1237 13.1979C34.9657 13.2257 34.8149 13.1208 34.7868 12.9635C34.7589 12.8062 34.8641 12.6555 35.0222 12.6276ZM37.7829 12.6091C37.9407 12.637 38.0459 12.7868 38.0183 12.944C37.9904 13.1015 37.8395 13.2071 37.6813 13.1794C37.5232 13.1516 37.4181 13.0009 37.446 12.8434C37.4741 12.6862 37.6249 12.5813 37.7829 12.6091ZM36.402 12.4977C36.5624 12.498 36.6921 12.628 36.6921 12.7878C36.692 12.9475 36.5624 13.0766 36.402 13.0768C36.2415 13.0768 36.1111 12.9476 36.111 12.7878C36.111 12.6279 36.2415 12.4977 36.402 12.4977ZM32.6501 12.5202C32.7774 12.4611 32.9286 12.5164 32.988 12.6432C33.0473 12.77 32.9923 12.9201 32.8649 12.9792C32.7376 13.0382 32.5864 12.9839 32.527 12.8571C32.4677 12.7303 32.5228 12.5793 32.6501 12.5202ZM39.7419 12.5583C39.8014 12.4318 39.9526 12.3772 40.0798 12.4362C40.2071 12.4953 40.2622 12.6463 40.2028 12.7731C40.1434 12.8997 39.9922 12.9543 39.8649 12.8952C39.7376 12.836 39.6825 12.6851 39.7419 12.5583ZM31.5124 12.1755C31.6167 12.1157 31.7501 12.1518 31.8102 12.2555C31.8704 12.3594 31.8344 12.4925 31.7302 12.5524C31.6259 12.6121 31.4925 12.5761 31.4323 12.4723C31.3723 12.3685 31.4082 12.2354 31.5124 12.1755ZM34.0837 11.9821C34.2194 11.9459 34.3598 12.0266 34.3962 12.1618C34.4323 12.2968 34.3511 12.4352 34.2155 12.4714C34.0799 12.5074 33.9404 12.4277 33.904 12.2926C33.8677 12.1576 33.9482 12.0185 34.0837 11.9821ZM40.8483 12.11C40.9085 12.0062 41.0419 11.9711 41.1462 12.0309C41.2504 12.0909 41.2864 12.223 41.2263 12.3268C41.166 12.4307 41.0327 12.4668 40.9284 12.4069C40.8242 12.347 40.7883 12.2139 40.8483 12.11ZM38.6345 11.9313C38.7699 11.9677 38.8503 12.1059 38.8142 12.2409C38.7778 12.376 38.6383 12.4566 38.5026 12.4206C38.3669 12.3844 38.2866 12.2452 38.3229 12.11C38.3593 11.9749 38.4988 11.8951 38.6345 11.9313ZM30.2888 11.9743C30.3709 11.917 30.4841 11.9366 30.5417 12.0182C30.5993 12.1001 30.579 12.2129 30.4968 12.2702C30.4146 12.3274 30.3014 12.3081 30.2438 12.2262C30.1864 12.1444 30.2066 12.0316 30.2888 11.9743ZM35.5905 11.7009C35.7303 11.6889 35.8535 11.7912 35.8659 11.9303C35.8782 12.0697 35.7744 12.1926 35.6345 12.2048C35.4946 12.2169 35.3716 12.1144 35.3591 11.9753C35.3468 11.8359 35.4505 11.713 35.5905 11.7009ZM37.1227 11.6833C37.2625 11.6957 37.3655 11.8184 37.3532 11.9577C37.3408 12.0969 37.2177 12.2003 37.0778 12.1882C36.9381 12.1759 36.8344 12.0529 36.8464 11.9137C36.8586 11.7744 36.9828 11.6711 37.1227 11.6833ZM42.0554 11.7995C42.1129 11.7177 42.2261 11.6975 42.3083 11.7546C42.3904 11.8118 42.4105 11.9247 42.3532 12.0065C42.2957 12.0883 42.1825 12.1086 42.1003 12.0514C42.0181 11.9941 41.9979 11.8813 42.0554 11.7995ZM33.0231 11.446C33.1363 11.405 33.2622 11.4632 33.3034 11.5759C33.3446 11.6885 33.2857 11.8132 33.1726 11.8542C33.0594 11.8951 32.9344 11.837 32.8933 11.7243C32.8523 11.6117 32.9102 11.487 33.0231 11.446ZM39.3347 11.4762C39.376 11.3638 39.5009 11.3054 39.614 11.3464C39.7271 11.3873 39.7849 11.512 39.7438 11.6247C39.7026 11.7374 39.5777 11.7956 39.4645 11.7546C39.3515 11.7135 39.2935 11.5889 39.3347 11.4762ZM34.6394 10.9889C34.7577 10.9683 34.8702 11.0469 34.8913 11.1647C34.9122 11.2828 34.8332 11.3958 34.7145 11.4167C34.5962 11.4373 34.4837 11.3587 34.4626 11.2409C34.4417 11.1228 34.5207 11.0098 34.6394 10.9889ZM31.8542 11.0358C31.9451 10.9938 32.053 11.0332 32.0954 11.1237C32.1378 11.2143 32.0984 11.3217 32.0075 11.3639C31.9167 11.4061 31.8089 11.3673 31.7663 11.277C31.7239 11.1864 31.7632 11.078 31.8542 11.0358ZM37.9851 10.9382C38.1037 10.959 38.1827 11.072 38.1618 11.1901C38.1409 11.3082 38.0275 11.3867 37.9089 11.3659C37.7906 11.3449 37.7114 11.2328 37.7321 11.1149C37.753 10.9968 37.8665 10.9174 37.9851 10.9382ZM36.3102 10.818C36.4304 10.8182 36.5279 10.9151 36.528 11.0348C36.528 11.1546 36.4305 11.2524 36.3102 11.2526C36.1898 11.2526 36.0915 11.1548 36.0915 11.0348C36.0916 10.915 36.1899 10.818 36.3102 10.818ZM40.7097 10.8747C40.8006 10.9169 40.84 11.0243 40.7976 11.1149C40.7551 11.2055 40.6473 11.245 40.5563 11.2028C40.4656 11.1606 40.4264 11.053 40.4685 10.9626C40.5108 10.8721 40.6188 10.8327 40.7097 10.8747ZM33.5583 10.3825C33.6552 10.3566 33.7549 10.414 33.781 10.5104C33.8069 10.6068 33.7498 10.7061 33.653 10.7321C33.5561 10.758 33.4563 10.7007 33.4304 10.6042C33.4044 10.5077 33.4615 10.4085 33.5583 10.3825ZM38.9821 10.2839C39.0791 10.3097 39.137 10.409 39.111 10.5055C39.0851 10.6021 38.9853 10.6593 38.8884 10.6335C38.7914 10.6076 38.7335 10.5083 38.7595 10.4118C38.7854 10.3154 38.8853 10.2582 38.9821 10.2839ZM35.3513 10.0339C35.4513 10.0251 35.5398 10.0993 35.5485 10.1989C35.5572 10.2983 35.4833 10.3863 35.3835 10.3952C35.2835 10.4039 35.195 10.3297 35.1862 10.2301C35.1776 10.1307 35.2514 10.0426 35.3513 10.0339ZM37.1774 10.0007C37.2774 10.0094 37.3522 10.0974 37.3435 10.1969C37.3347 10.2965 37.2462 10.3697 37.1462 10.361C37.0463 10.3523 36.9726 10.2651 36.9811 10.1657C36.9899 10.0663 37.0776 9.99221 37.1774 10.0007Z" fill="white"/>
<defs>
<linearGradient id="paint0_linear_2003_228" x1="54.1028" y1="22.4149" x2="69.2108" y2="7.94648" gradientUnits="userSpaceOnUse">
<stop offset="1" stop-color="white"/>
</linearGradient>
<linearGradient id="paint1_linear_2003_228" x1="83.9599" y1="16.898" x2="68.439" y2="31.5456" gradientUnits="userSpaceOnUse">
<stop offset="1" stop-color="white"/>
</linearGradient>
</defs>
</svg>
