<svg width="44" height="39" viewBox="0 0 44 39" fill="none" xmlns="http://www.w3.org/2000/svg">
<rect width="44" height="39" rx="10" fill="white"/>
<path d="M14.8883 29.0734L24.0514 10.6263C24.1232 10.4799 24.1491 10.3148 24.1256 10.1542C24.1021 9.99371 24.0303 9.84591 23.9204 9.73173C23.8015 9.61805 23.6491 9.54849 23.4865 9.53363C23.324 9.51877 23.1601 9.55942 23.0198 9.64941L14.4269 15.0966L5.97146 9.69974C5.83474 9.61207 5.67335 9.57325 5.51151 9.58911C5.34967 9.60496 5.19611 9.67464 5.07385 9.78768C4.95059 9.90197 4.86603 10.0542 4.8331 10.221C4.80017 10.3878 4.82068 10.5602 4.89149 10.7116L13.5461 29.0872C13.6071 29.2156 13.7018 29.3232 13.8196 29.3979C13.9374 29.4725 14.0736 29.5113 14.213 29.5099C14.3523 29.5084 14.4893 29.4668 14.6086 29.3898C14.7278 29.3127 14.8247 29.2031 14.8883 29.0734Z" fill="url(#paint0_linear_2004_27)"/>
<path d="M29.2435 10.1793L20.1671 28.3231C20.096 28.4671 20.0703 28.6304 20.0937 28.7898C20.117 28.9493 20.1882 29.0969 20.2971 29.2117C20.415 29.3262 20.566 29.3975 20.7271 29.4147C20.8882 29.4319 21.0506 29.3941 21.1896 29.3071L29.7037 24.0396L38.0837 29.5181C38.2192 29.6071 38.3791 29.648 38.5395 29.6348C38.6999 29.6216 38.852 29.5548 38.9732 29.4447C39.0953 29.3333 39.179 29.1837 39.2116 29.0189C39.2442 28.854 39.2239 28.6829 39.1537 28.5317L30.5735 10.1862C30.513 10.0579 30.4191 9.94987 30.3024 9.87408C30.1856 9.79828 30.0507 9.75776 29.9126 9.75704C29.7745 9.75633 29.6388 9.79546 29.5206 9.87004C29.4024 9.94462 29.3065 10.0517 29.2435 10.1793Z" fill="url(#paint1_linear_2004_27)"/>
<defs>
<linearGradient id="paint0_linear_2004_27" x1="7.10279" y1="22.415" x2="22.2108" y2="7.94649" gradientUnits="userSpaceOnUse">
<stop stop-color="#FF1CF7"/>
<stop offset="1" stop-color="#00F0FF"/>
</linearGradient>
<linearGradient id="paint1_linear_2004_27" x1="36.9599" y1="16.898" x2="21.439" y2="31.5456" gradientUnits="userSpaceOnUse">
<stop stop-color="#FF1CF7"/>
<stop offset="1" stop-color="#00F0FF"/>
</linearGradient>
</defs>
</svg>
